<?xml version="1.0" encoding="UTF-8" standalone="no"?>
<!DOCTYPE svg PUBLIC "-//W3C//DTD SVG 1.1//EN" "http://www.w3.org/Graphics/SVG/1.1/DTD/svg11.dtd">
<svg width="100%" height="100%" viewBox="0 0 764 358" version="1.1" xmlns="http://www.w3.org/2000/svg" xmlnsXlink="http://www.w3.org/1999/xlink" xmlSpace="preserve" xmlnsSerif="http://www.serif.com/" style="fill-rule:evenodd;clip-rule:evenodd;stroke-linejoin:round;stroke-miterlimit:2;">
    <g id="Artboard1" transform="matrix(1,0,0,1,-20.02,-16.2634)">
        <rect x="20.02" y="16.263" width="763.692" height="357.447" style="fill:none;"/>
        <g id="Microphone-in-fist.svg" serifId="Microphone in fist.svg" transform="matrix(1,0,0,1,171.127,195.92)">
            <g transform="matrix(1,0,0,1,-112.892,-129.69)">
                <g id="Layer-1" serifId="Layer 1" transform="matrix(1,0,0,1,-112.148,-323.459)">
                    <g id="g3462">
                    </g>
                    <path id="path3627" d="M157.65,337.292C147.261,337.494 137.112,342.428 130.587,351.511C119.601,366.809 123.103,388.149 138.4,399.136C139.006,399.571 139.62,399.902 140.244,400.292C154.222,389.297 177.018,357.542 180.119,345.261C179.481,344.729 178.866,344.191 178.181,343.698C171.966,339.235 164.758,337.154 157.65,337.292ZM183.025,347.948C179.213,364.85 158.641,388.989 144.994,402.792C152.172,405.84 160.044,406.279 167.306,404.292C167.321,404.276 167.353,404.277 167.369,404.261C171.975,399.582 177.081,393.44 181.15,387.761C185.247,382.043 189.458,375.388 192.306,369.417C191.847,361.553 188.669,353.891 183.025,347.948L183.025,347.948ZM223.212,369.667C221.134,369.719 219.101,370.764 217.9,372.636L207.681,388.573C206.651,390.18 203.237,393.108 203.712,394.823C204.123,396.306 207.542,398.027 208.931,398.917L222.087,404.573C225.083,406.494 227.76,405.632 229.681,402.636L239.869,386.73C240.725,385.394 242.065,383.509 241.869,382.042C241.625,380.219 239.591,378.857 237.931,377.792L226.837,370.667C225.714,369.947 224.46,369.636 223.212,369.667ZM195.244,371.542C195.236,371.559 195.22,371.587 195.212,371.605L195.275,371.73C194.151,373.89 192.921,376.101 191.619,378.323C191.601,378.356 191.575,378.384 191.556,378.417C189.283,382.259 186.762,386.112 183.962,390.011C181.204,393.851 178.334,397.457 175.462,400.792C175.447,400.801 175.447,400.814 175.431,400.823C173.737,402.778 172.074,404.672 170.368,406.448C173.42,408.307 176.875,410.411 180.243,412.48C182.937,408.599 185.759,404.826 188.712,401.198C191.814,397.121 196.965,393.209 202.181,396.261C200.041,391.354 206.813,388.352 208.118,384.167C208.474,383.776 208.825,383.358 209.15,382.917C204.174,378.919 199.489,375.079 195.243,371.542L195.244,371.542ZM248.712,382.323C246.525,382.34 244.412,383.445 243.212,385.448L233.65,401.417C232.679,403.038 230.391,405.668 230.9,407.355C231.349,408.844 234.437,409.435 235.869,410.292C238.131,411.46 246.601,413.73 246.712,416.761C246.839,420.186 243.488,426.477 245.869,430.136C247.066,430.853 250.752,426.014 253.15,422.48C254.181,420.96 255.357,420.024 255.744,419.542C256.656,418.405 257.659,417.602 258.462,416.261L268.025,400.323C269.853,397.27 268.859,393.276 265.806,391.448L252.087,383.23C251.038,382.601 249.858,382.315 248.712,382.323ZM197.962,397.198C197.811,397.206 197.648,397.207 197.494,397.23C196.021,397.682 194.718,398.38 193.525,399.23C193.448,399.295 193.353,399.35 193.275,399.417C191.476,400.981 189.442,403.244 187.306,405.98C185.304,408.85 183.502,411.904 181.369,414.355C173.054,426.891 165.119,442.178 165.119,445.292C165.119,450.811 182.586,469.098 191.087,483.917C199.42,498.443 209.809,508.913 208.837,511.136C206.26,526.018 204.868,532.465 202.337,550.73C199.806,568.994 202.431,569.011 202.431,569.011C202.431,569.011 270.164,568.785 271.494,568.667C272.823,568.549 272.556,566.667 272.556,566.667C272.556,564.51 272.994,561.991 273.431,560.073C273.868,558.156 273.775,544.708 273.775,539.292C273.124,534.152 274.73,515.167 274.962,514.292C275.195,513.417 276.516,511.832 278.056,510.292C279.596,508.752 282.119,503.948 282.119,503.948C285.2,499.84 285.893,500.76 287.4,497.542C288.436,495.33 289.93,488.191 290.994,483.48C285.748,480.223 280.568,476.806 275.275,473.667L274.4,474.448C273.896,475.154 272.98,475.101 272.494,473.948C272.007,472.796 270.775,471.98 270.775,471.98C269.245,471.404 265.874,467.664 261.369,463.667C257.488,458.849 252.729,459.21 250.181,458.198C247.633,457.187 230.335,453.54 228.119,453.417C225.902,453.294 228.119,456.198 228.119,456.198C232.14,461.495 245.215,477.189 245.275,477.261C245.195,477.197 245.008,477.254 247.181,482.292C249.665,488.051 251.391,494.413 252.994,497.167C254.321,502.813 257.148,504.577 258.681,505.386C260.214,506.195 259.65,506.886 259.65,506.886C258.638,507.433 256.454,509.636 255.244,509.636C254.034,509.636 252.619,511.417 252.619,511.417C251.131,512.749 253.181,547.145 253.181,548.698C253.181,550.252 252.337,550.636 252.337,550.636C252.337,550.636 251.571,549.882 251.806,549.073C252.041,548.265 251.427,539.06 251.056,536.948C250.217,535.208 250.525,533.042 250.525,533.042C251.066,530.462 248.595,514.495 247.962,512.386C247.329,510.277 247.925,508.005 247.056,507.136C246.187,506.267 237.986,507.097 237.306,506.417C236.626,505.737 237.306,505.73 237.306,505.73C241.428,505.345 250.774,498.406 250.806,496.323C250.838,494.241 221.419,450.744 218.681,449.136C215.943,447.528 211.175,446.557 209.837,445.886C208.499,445.214 206.251,443.344 202.806,442.886C199.361,442.428 198.894,441.734 198.65,441.23C198.405,440.726 201.4,440.292 201.4,440.292C205.375,437.522 207.869,430.642 206.806,427.948C205.743,425.255 206.619,424.667 206.619,424.667C209.899,426.195 219.056,436.167 219.056,436.167C225.343,437.543 236.595,433.113 240.306,431.386C244.017,429.659 244.907,419.206 244.275,417.042C244.012,416.142 236.997,412.707 228.525,408.948C228.213,408.881 227.888,408.769 227.619,408.573C220.108,405.263 211.686,401.796 205.494,399.542C205.705,399.971 205.946,400.387 206.15,400.792C204.648,400.15 203.233,399.047 201.744,398.23C201.698,398.215 201.664,398.213 201.619,398.198C200.025,397.68 198.779,397.333 197.962,397.198L197.962,397.198ZM271.025,404.698C269.158,404.739 267.328,405.565 266.087,407.136L241.525,442.292C239.319,445.084 239.795,449.18 242.587,451.386L254.15,456.917C256.942,459.123 261.037,458.647 263.244,455.855L286.994,425.792C289.2,423 288.723,418.905 285.931,416.698L275.181,406.073C273.959,405.108 272.477,404.667 271.025,404.698ZM228.806,406.48C227.841,406.624 229.09,407.38 228.806,406.48ZM292.087,425.761C291.535,425.777 290.996,425.96 290.587,426.355L264.15,458.042C262.516,459.62 262.32,462.13 263.744,463.605L270.962,471.073C272.386,472.548 274.891,472.463 276.525,470.886L305.462,442.948C307.097,441.371 307.261,438.86 305.837,437.386L296.869,428.198C295.801,427.092 293.745,425.712 292.087,425.761ZM242.962,433.886L227.587,438.136C225.041,438.824 219.605,440.498 218.056,437.917C216.507,435.336 216.468,434.626 214.525,434.73C211.328,435.36 212.155,438.112 212.9,438.98C214.407,440.735 224.645,447.618 230.056,449.511C230.72,449.743 231.291,449.338 232.306,447.823C233.321,446.309 242.233,436.323 243.025,435.136C243.644,433.914 242.962,433.886 242.962,433.886ZM298.212,452.823C294.027,456.743 289.705,460.587 285.775,464.698C283.131,466.594 280.528,470.584 277.431,472.698C286.628,478.37 295.349,483.74 302.869,488.292C304.928,489.771 309.845,486.463 313.806,480.948C317.767,475.434 319.303,469.802 317.244,468.323C311.573,463.581 305.128,458.345 298.212,452.823ZM319.587,474.417C318.142,479.901 314.329,484.968 309.619,488.292L314.181,491.355C316.233,492.746 319.016,492.235 320.431,490.198L325.087,483.511C326.502,481.475 326.014,478.746 323.962,477.355L319.587,474.417Z" style="fill-rule:nonzero;"/>
                </g>
            </g>
        </g>
        <g transform="matrix(1,0,0,1,0.754051,-49.7743)">
            <text x="323.983px" y="194.58px" style="font-family:'Chalkduster', cursive;font-size:144px;">t<tspan x="383.333px 491.214px 592.412px " y="194.58px 194.58px 194.58px ">our</tspan></text>
            <text x="323.983px" y="340.489px" style="font-family:'Chalkduster', cursive;font-size:144px;">s<tspan x="401.154px 466.869px 561.066px 633.304px " y="340.489px 340.489px 340.489px 340.489px ">tuff</tspan></text>
        </g>
    </g>
</svg>
